# xmcd
#
# Track frame offsets:
#	150
#	18189
#	35405
#	46685
#	75709
#	96189
#	115625
#	144520
#	193490
#	215437
#	245290
#
# Disc length: 3584 seconds
#
# Revision: 0
# Processed by: cddbd v1.5.1PL0 Copyright (c) Steve Scherf et al.
# Submitted via: dBpowerAMP V4.0
#
DISCID=8b0dfe0b
DTITLE=The Not Yet Famous Blues Band - Trio
DYEAR=1900
DGENRE=Blues
TTITLE0=Consider it Done
TTITLE1=I've Been Living in Paradise
TTITLE2=Carabina
TTITLE3=Evil Heart
TTITLE4=High Is the Mountain
TTITLE5=Piscina
TTITLE6=Noite e dia
TTITLE7=Booze
TTITLE8=Love Come Set Me Free
TTITLE9=No
TTITLE10=My Babies Eyes
EXTD=
EXTT0=
EXTT1=
EXTT2=
EXTT3=
EXTT4=
EXTT5=
EXTT6=
EXTT7=
EXTT8=
EXTT9=
EXTT10=
PLAYORDER=
